<?xml version="1.0" encoding="utf-8"?>
<!-- Generator: Adobe Illustrator 25.2.1, SVG Export Plug-In . SVG Version: 6.00 Build 0)  -->
<!DOCTYPE svg PUBLIC "-//W3C//DTD SVG 1.1//EN" "http://www.w3.org/Graphics/SVG/1.1/DTD/svg11.dtd" [
	<!ENTITY ns_extend "http://ns.adobe.com/Extensibility/1.0/">
	<!ENTITY ns_ai "http://ns.adobe.com/AdobeIllustrator/10.0/">
	<!ENTITY ns_graphs "http://ns.adobe.com/Graphs/1.0/">
	<!ENTITY ns_vars "http://ns.adobe.com/Variables/1.0/">
	<!ENTITY ns_imrep "http://ns.adobe.com/ImageReplacement/1.0/">
	<!ENTITY ns_sfw "http://ns.adobe.com/SaveForWeb/1.0/">
	<!ENTITY ns_custom "http://ns.adobe.com/GenericCustomNamespace/1.0/">
	<!ENTITY ns_adobe_xpath "http://ns.adobe.com/XPath/1.0/">
]>
<svg version="1.1" xmlns:x="&ns_extend;" xmlns:i="&ns_ai;" xmlns:graph="&ns_graphs;"
	 xmlns="http://www.w3.org/2000/svg" xmlns:xlink="http://www.w3.org/1999/xlink" x="0px" y="0px" width="1000px" height="375px"
	 viewBox="0 0 1000 375" enable-background="new 0 0 1000 375" xml:space="preserve">
<metadata>
	<sfw  xmlns="&ns_sfw;">
		<slices></slices>
		<sliceSourceBounds  bottomLeftOrigin="true" height="15500" width="8688" x="-4000" y="-6314"></sliceSourceBounds>
	</sfw>
</metadata>
<g id="FILL-BACKGROUND">
	<rect x="0" y="0" fill="#FFFFFF" width="1000" height="375"/>
</g>
<g id="N-TEXT">
</g>
<g id="N-DIMENSIONS">
	<g>
		<path fill="#C346FF" d="M311.62,50.479c-0.08-0.088-0.12-0.197-0.12-0.33V38.867l-3.36,2.58c-0.094,0.08-0.194,0.121-0.3,0.121
			c-0.12,0-0.233-0.066-0.34-0.201l-0.48-0.619c-0.067-0.094-0.1-0.187-0.1-0.28c0-0.146,0.066-0.267,0.2-0.36l4.34-3.359
			c0.146-0.094,0.32-0.141,0.52-0.141h0.94c0.133,0,0.243,0.044,0.33,0.131c0.086,0.086,0.13,0.196,0.13,0.33v13.08
			c0,0.133-0.043,0.242-0.13,0.33c-0.087,0.086-0.197,0.129-0.33,0.129h-0.98C311.807,50.607,311.7,50.564,311.62,50.479z"/>
		<path fill="#C346FF" d="M316.14,40.098c-0.054-0.072-0.074-0.176-0.06-0.31l0.44-2.8c0.053-0.387,0.24-0.58,0.56-0.58h1.28
			c0.093,0,0.17,0.033,0.23,0.1s0.09,0.146,0.09,0.24c0,0.133-0.02,0.24-0.06,0.32l-1.04,2.699c-0.067,0.146-0.14,0.258-0.22,0.33
			c-0.08,0.074-0.2,0.11-0.36,0.11h-0.62C316.272,40.208,316.192,40.172,316.14,40.098z"/>
		<path fill="#C346FF" d="M327.169,50.479c-0.087-0.088-0.13-0.197-0.13-0.33v-2.92h-6.5c-0.133,0-0.244-0.044-0.33-0.131
			c-0.087-0.086-0.13-0.196-0.13-0.33v-0.74c0-0.186,0.073-0.387,0.22-0.6l6.02-8.48c0.067-0.105,0.167-0.189,0.3-0.25
			c0.133-0.06,0.28-0.09,0.44-0.09h1.36c0.146,0,0.26,0.041,0.34,0.121c0.08,0.08,0.12,0.193,0.12,0.34v8.479h1.82
			c0.133,0,0.243,0.044,0.33,0.13c0.087,0.087,0.13,0.197,0.13,0.33v0.76c0,0.134-0.043,0.244-0.13,0.33
			c-0.087,0.087-0.197,0.131-0.33,0.131h-1.82v2.92c0,0.133-0.043,0.242-0.13,0.33c-0.087,0.086-0.197,0.129-0.33,0.129h-0.92
			C327.366,50.607,327.256,50.564,327.169,50.479z M322.16,45.588h4.9v-6.96L322.16,45.588z"/>
		<path fill="#C346FF" d="M333.029,40.088c-0.06-0.08-0.077-0.18-0.05-0.3l0.44-2.8c0.053-0.387,0.24-0.58,0.56-0.58h1.28
			c0.093,0,0.17,0.033,0.23,0.1s0.09,0.146,0.09,0.24c0,0.133-0.02,0.24-0.06,0.32l-1.04,2.699c-0.067,0.146-0.14,0.258-0.22,0.33
			c-0.08,0.074-0.2,0.11-0.36,0.11h-0.62C333.172,40.208,333.089,40.168,333.029,40.088z M336.169,40.088
			c-0.06-0.08-0.077-0.18-0.05-0.3l0.44-2.8c0.053-0.387,0.24-0.58,0.56-0.58h1.28c0.093,0,0.17,0.033,0.23,0.1
			s0.09,0.146,0.09,0.24c0,0.133-0.02,0.24-0.06,0.32l-1.04,2.699c-0.067,0.146-0.14,0.258-0.22,0.33
			c-0.08,0.074-0.2,0.11-0.36,0.11h-0.62C336.312,40.208,336.229,40.168,336.169,40.088z"/>
		<path fill="#C346FF" d="M272.07,72.4c-0.087-0.088-0.13-0.197-0.13-0.33v-2.92h-6.5c-0.133,0-0.244-0.044-0.33-0.131
			c-0.087-0.086-0.13-0.196-0.13-0.33v-0.74c0-0.186,0.073-0.387,0.22-0.6l6.02-8.48c0.067-0.105,0.167-0.189,0.3-0.25
			c0.133-0.06,0.28-0.09,0.44-0.09h1.36c0.146,0,0.26,0.041,0.34,0.121c0.08,0.08,0.12,0.193,0.12,0.34v8.479h1.82
			c0.133,0,0.243,0.044,0.33,0.13c0.087,0.087,0.13,0.197,0.13,0.33v0.76c0,0.134-0.043,0.244-0.13,0.33
			c-0.087,0.087-0.197,0.131-0.33,0.131h-1.82v2.92c0,0.133-0.043,0.242-0.13,0.33c-0.087,0.086-0.197,0.129-0.33,0.129h-0.92
			C272.267,72.529,272.156,72.486,272.07,72.4z M267.06,67.51h4.9v-6.96L267.06,67.51z"/>
		<path fill="#C346FF" d="M279.27,71.22c-0.793-1.007-1.217-2.323-1.27-3.95l-0.02-1.72l0.02-1.78c0.04-1.613,0.463-2.923,1.27-3.93
			s2.063-1.51,3.77-1.51c1.72,0,2.983,0.503,3.79,1.51s1.23,2.316,1.27,3.93c0.013,0.373,0.02,0.967,0.02,1.78
			c0,0.786-0.007,1.36-0.02,1.72c-0.053,1.627-0.477,2.943-1.27,3.95s-2.057,1.511-3.79,1.511
			C281.32,72.73,280.063,72.227,279.27,71.22z M285.36,70.05c0.52-0.681,0.793-1.64,0.82-2.88c0.013-0.387,0.02-0.939,0.02-1.66
			c0-0.732-0.007-1.279-0.02-1.641c-0.027-1.227-0.303-2.183-0.83-2.869c-0.527-0.688-1.297-1.03-2.31-1.03s-1.78,0.343-2.3,1.03
			c-0.52,0.687-0.793,1.643-0.82,2.869l-0.02,1.641l0.02,1.66c0.026,1.24,0.3,2.199,0.82,2.88s1.287,1.021,2.3,1.021
			C284.066,71.07,284.84,70.73,285.36,70.05z"/>
		<path fill="#C346FF" d="M290.55,72.4c-0.087-0.088-0.13-0.197-0.13-0.33v-1.381c0-0.133,0.043-0.246,0.13-0.34
			c0.086-0.093,0.196-0.14,0.33-0.14h1.38c0.133,0,0.243,0.047,0.33,0.14c0.087,0.094,0.13,0.207,0.13,0.34v1.381
			c0,0.133-0.043,0.242-0.13,0.33c-0.086,0.086-0.197,0.129-0.33,0.129h-1.38C290.747,72.529,290.637,72.486,290.55,72.4z"/>
		<path fill="#C346FF" d="M297.19,72.08c-0.78-0.434-1.374-1.018-1.78-1.75c-0.407-0.733-0.61-1.533-0.61-2.4
			c0-1.146,0.46-2.373,1.38-3.68l3.82-5.32c0.013-0.014,0.05-0.061,0.11-0.141c0.06-0.079,0.137-0.143,0.23-0.189
			s0.2-0.07,0.32-0.07h0.98c0.12,0,0.217,0.044,0.29,0.131c0.073,0.086,0.11,0.189,0.11,0.31c0,0.067-0.034,0.153-0.1,0.261
			l-2.92,4.079c0.346-0.079,0.733-0.12,1.16-0.12c0.973,0,1.83,0.217,2.57,0.65c0.74,0.434,1.313,1.007,1.72,1.72
			c0.407,0.714,0.61,1.497,0.61,2.351s-0.203,1.649-0.61,2.39c-0.407,0.739-0.997,1.33-1.77,1.771
			c-0.773,0.439-1.687,0.66-2.74,0.66C298.893,72.73,297.97,72.514,297.19,72.08z M301.56,70.71c0.493-0.24,0.886-0.597,1.18-1.07
			c0.293-0.474,0.44-1.043,0.44-1.71c0-0.652-0.15-1.217-0.45-1.689c-0.3-0.474-0.697-0.834-1.19-1.08
			c-0.494-0.247-1.027-0.371-1.6-0.371c-0.574,0-1.107,0.124-1.6,0.371c-0.494,0.246-0.887,0.606-1.18,1.08
			c-0.293,0.473-0.44,1.037-0.44,1.689c0,0.667,0.146,1.236,0.44,1.71s0.687,0.83,1.18,1.07c0.493,0.239,1.026,0.36,1.6,0.36
			C300.526,71.07,301.066,70.949,301.56,70.71z"/>
		<path fill="#C346FF" d="M313.06,71.52c-0.8-0.807-1.22-1.937-1.26-3.39l-0.02-0.8l0.02-0.801c0.04-1.453,0.46-2.582,1.26-3.39
			c0.8-0.807,1.913-1.21,3.34-1.21c0.96,0,1.77,0.17,2.43,0.51c0.66,0.34,1.153,0.764,1.48,1.271s0.503,1.013,0.53,1.521
			c0.013,0.119-0.03,0.227-0.13,0.319c-0.1,0.093-0.21,0.14-0.33,0.14h-0.88c-0.133,0-0.233-0.029-0.3-0.09
			c-0.067-0.061-0.133-0.17-0.2-0.33c-0.24-0.652-0.57-1.116-0.99-1.39s-0.95-0.41-1.59-0.41c-0.84,0-1.507,0.261-2,0.78
			c-0.494,0.52-0.76,1.312-0.8,2.38l-0.02,0.7l0.02,0.699c0.04,1.067,0.307,1.86,0.8,2.381c0.493,0.52,1.16,0.779,2,0.779
			c0.653,0,1.187-0.137,1.6-0.41c0.414-0.272,0.74-0.736,0.98-1.39c0.067-0.159,0.133-0.271,0.2-0.33
			c0.066-0.06,0.167-0.09,0.3-0.09h0.88c0.12,0,0.23,0.047,0.33,0.14c0.1,0.094,0.143,0.2,0.13,0.32
			c-0.027,0.494-0.204,0.994-0.53,1.5c-0.327,0.507-0.82,0.934-1.48,1.28c-0.66,0.347-1.47,0.521-2.43,0.521
			C314.973,72.73,313.86,72.326,313.06,71.52z"/>
		<path fill="#C346FF" d="M323.369,72.4c-0.087-0.088-0.13-0.197-0.13-0.33v-9.48c0-0.133,0.043-0.243,0.13-0.33
			c0.087-0.086,0.197-0.13,0.33-0.13h0.84c0.133,0,0.24,0.044,0.32,0.13c0.08,0.087,0.12,0.197,0.12,0.33v0.68
			c0.72-0.893,1.693-1.34,2.92-1.34c1.466,0,2.506,0.613,3.12,1.84c0.32-0.56,0.777-1.006,1.37-1.34c0.593-0.333,1.257-0.5,1.99-0.5
			c1.093,0,1.986,0.373,2.68,1.12s1.04,1.827,1.04,3.239v5.781c0,0.133-0.043,0.242-0.13,0.33c-0.087,0.086-0.197,0.129-0.33,0.129
			h-0.86c-0.133,0-0.244-0.043-0.33-0.129c-0.087-0.088-0.13-0.197-0.13-0.33V66.47c0-1.066-0.22-1.83-0.66-2.29
			s-1.02-0.689-1.74-0.689c-0.64,0-1.19,0.236-1.65,0.709c-0.46,0.475-0.69,1.23-0.69,2.271v5.601c0,0.133-0.043,0.242-0.13,0.33
			c-0.087,0.086-0.197,0.129-0.33,0.129h-0.88c-0.133,0-0.244-0.043-0.33-0.129c-0.087-0.088-0.13-0.197-0.13-0.33V66.47
			c0-1.054-0.23-1.813-0.69-2.28s-1.03-0.699-1.71-0.699c-0.64,0-1.19,0.232-1.65,0.699c-0.46,0.467-0.69,1.221-0.69,2.26v5.621
			c0,0.133-0.043,0.242-0.13,0.33c-0.087,0.086-0.197,0.129-0.33,0.129h-0.88C323.566,72.529,323.456,72.486,323.369,72.4z"/>
	</g>
</g>
<g id="_x32_D_x24_AG-DIAGRAM">
	<g id="POLYLINE_1249_">
		<g>
			<g>
				
					<line fill="none" stroke="#C346FF" stroke-width="3" stroke-linecap="round" stroke-linejoin="round" x1="71.5" y1="329.757" x2="73.5" y2="329.757"/>
				
					<line fill="none" stroke="#C346FF" stroke-width="3" stroke-linecap="round" stroke-linejoin="round" stroke-dasharray="4,7" x1="80.5" y1="329.757" x2="924" y2="329.757"/>
				
					<line fill="none" stroke="#C346FF" stroke-width="3" stroke-linecap="round" stroke-linejoin="round" x1="927.5" y1="329.757" x2="929.5" y2="329.757"/>
			</g>
		</g>
	</g>
</g>
<g id="_x32_D_x24_AG-GUIDES">
	<g id="POLYLINE_3720_">
		<g>
			<g>
				
					<line fill="none" stroke="#C346FF" stroke-width="2.5" stroke-linecap="round" stroke-linejoin="round" x1="307.5" y1="89.5" x2="309" y2="89.5"/>
				
					<line fill="none" stroke="#C346FF" stroke-width="2.5" stroke-linecap="round" stroke-linejoin="round" stroke-dasharray="3.3262,6.6525" x1="315.652" y1="89.5" x2="332.284" y2="89.5"/>
				
					<line fill="none" stroke="#C346FF" stroke-width="2.5" stroke-linecap="round" stroke-linejoin="round" x1="335.61" y1="89.5" x2="337.11" y2="89.5"/>
			</g>
		</g>
	</g>
</g>
<g id="_x32_D_x24_AG-DETAILS-DIAGRAM">
</g>
<g id="_x32_D_x24_AG-DETAILS">
</g>
<g id="_x32_D_x24_AG-POP-CULTURE">
	<g id="POLYLINE_1199_">
		
			<path fill="none" stroke="#C346FF" stroke-width="2.5" stroke-linecap="round" stroke-linejoin="round" stroke-miterlimit="10" d="
			M945.375,155.673c0.72,1.45,1.119,3.051,1.356,4.646c0.214,1.531,0.254,3.121-0.152,4.624c-0.209,0.781-0.539,1.531-0.964,2.218
			c-0.67,1.103-1.717,2.167-2.579,3.128c-0.456,0.525-0.941,1.074-1.142,1.753c-0.165,0.55-0.117,1.139-0.059,1.703
			c0.074,0.707,0.216,1.608,0.206,2.31c0.002,0.616-0.06,1.239-0.172,1.845c-0.256,1.379-0.752,2.712-1.331,3.986
			c-0.726,1.584-1.605,3.128-2.578,4.572c-2.16,3.19-4.774,6.16-7.385,8.986c-6.224,6.701-14.109,13.955-20.886,20.166"/>
	</g>
	<g id="POLYLINE_1198_">
		
			<path fill="none" stroke="#C346FF" stroke-width="2.5" stroke-linecap="round" stroke-linejoin="round" stroke-miterlimit="10" d="
			M822.756,136.958c-9.013,2.291-18.315,3.95-27.588,4.691c-8.068,0.664-16.355,0.585-24.429,0.001
			c-9.633-0.728-19.422-1.894-28.775-4.374c-2.308-0.642-4.65-1.37-6.802-2.434c-1.118-0.565-2.221-1.232-3.074-2.162
			c-0.814-0.878-1.299-2.065-1.177-3.271c0.081-0.828,0.459-1.6,0.951-2.261c0.682-0.915,1.563-1.673,2.473-2.355
			c1.417-1.052,2.999-1.957,4.56-2.779c2.632-1.372,5.428-2.575,8.197-3.642c14.433-5.495,29.906-8.149,45.183-10.017
			c7.335-0.861,15.036-1.547,22.417-1.789c6.996-0.211,14.174,0.021,21.084,1.188c1.303,0.209,5.14,0.962,6.536,0.976
			c0.534,0.015,1.08-0.021,1.596-0.17c0.43-0.121,0.835-0.322,1.211-0.561c1.209-0.816,1.671-1.301,2.708-2.109
			c1.433-1.138,2.987-2.161,4.627-2.976c2.198-1.095,4.568-1.887,6.937-2.519c7.517-1.958,15.409-2.457,23.153-2.264
			c5.869,0.198,11.827,0.769,17.485,2.404c3.871,1.119,7.6,2.807,10.982,4.999c5.347,3.478,10.291,7.96,13.148,13.748
			c2.521,5.175,3.47,10.975,4.034,16.657c0.186,1.693,0.334,5.149,0.562,6.839c0.053,0.361,0.13,0.735,0.24,1.083
			c0.112,0.355,0.27,0.701,0.483,1.008c0.236,0.343,0.54,0.635,0.856,0.903c1.524,1.287,3.284,2.294,5.056,3.199l4.515,2.231"/>
	</g>
	<g id="POLYLINE_1197_">
		
			<polyline fill="none" stroke="#C346FF" stroke-width="2.5" stroke-linecap="round" stroke-linejoin="round" stroke-miterlimit="10" points="
			746.176,272.322 747.577,262.864 752.781,270.556 755.1,261.449 759.851,270.726 761.322,258.621 765.182,264.345 		"/>
	</g>
	<g id="POLYLINE_1196_">
		
			<path fill="none" stroke="#C346FF" stroke-width="2.5" stroke-linecap="round" stroke-linejoin="round" stroke-miterlimit="10" d="
			M801.753,288.129l-20.926,11.972c-0.915-3.547-2.103-7.183-3.428-10.599c-1.392-3.599-2.99-7.374-4.719-10.82
			c-5.487,7.429-11.736,14.76-18.134,21.419c-2.91-9.284-9.315-31.059-12.089-40.604c-8.509,5.846-28.122,19.956-36.661,26.149
			c-3.07-17.28-7.244-37.899-11.038-55.058c-17.574,18.717-36.808,36.372-57.16,52.036c0.486-25.123,0.106-55.061-1.051-80.156
			c24.877-17.372,51.454-32.937,78.973-45.728l0.92,97.895c14.623-10.274,30.415-20.255,46.122-28.777
			c1.685,15.521,2.679,31.828,2.759,47.436c5.694-6.222,11.894-12.23,18.396-17.608l1.183,31.405l16.175-6.714"/>
	</g>
	<g id="POLYLINE_1195_">
		
			<path fill="none" stroke="#C346FF" stroke-width="2.5" stroke-linecap="round" stroke-linejoin="round" stroke-miterlimit="10" d="
			M839.672,320.195c-0.78,1.149-1.554,2.36-2.171,3.604c-0.341,0.697-0.653,1.425-0.826,2.183c-0.112,0.504-0.165,1.036-0.043,1.543
			c0.087,0.369,0.282,0.71,0.553,0.974c0.5,0.489,1.182,0.735,1.852,0.889c1.398,0.303,2.884,0.316,4.31,0.352
			c0,0,56.254,0.017,56.254,0.017c0.258-0.008,0.951,0.004,1.196-0.008c0.501-0.018,1.021-0.028,1.5-0.191
			c0.317-0.107,0.585-0.32,0.755-0.61c0.259-0.451,0.399-0.981,0.365-1.503c-0.03-0.455-0.199-0.892-0.435-1.279
			c-0.541-0.872-1.358-1.535-2.191-2.114c-1.712-1.161-3.638-2.018-5.553-2.786"/>
	</g>
	<g id="POLYLINE_1194_">
		
			<path fill="none" stroke="#C346FF" stroke-width="2.5" stroke-linecap="round" stroke-linejoin="round" stroke-miterlimit="10" d="
			M801.465,268.343c6.047,0.57,12.501,1.167,18.567,1.184c2.15-0.016,4.362-0.072,6.473-0.503c1.37-0.278,2.667-0.793,3.753-1.69
			c0.772-0.629,1.427-1.44,1.737-2.396c0.211-0.648,0.25-1.359,0.065-2.017c-0.165-0.605-0.524-1.147-0.995-1.558
			c-0.539-0.474-1.192-0.801-1.855-1.065c-2.414-0.958-6.214-1.384-8.78-1.87c-5.754-1.049-11.376-2.907-16.768-5.153"/>
	</g>
	<g id="POLYLINE_1193_">
		
			<path fill="none" stroke="#C346FF" stroke-width="2.5" stroke-linecap="round" stroke-linejoin="round" stroke-miterlimit="10" d="
			M809.502,229.109c5.713,0.784,11.69,1.545,17.451,1.629c2.371,0.011,4.793-0.048,7.104-0.62c0.984-0.252,1.953-0.628,2.782-1.225
			c1.105-0.821,2.079-1.905,2.568-3.208c0.321-0.857,0.388-1.807,0.183-2.699c-0.125-0.578-0.379-1.14-0.81-1.553
			c-0.419-0.411-0.953-0.685-1.496-0.894c-0.992-0.374-2.059-0.564-3.105-0.718c-3.139-0.383-6.545-0.836-9.594-1.64
			c-3.89-0.987-7.728-2.423-11.383-4.075"/>
	</g>
	<g id="POLYLINE_1192_">
		
			<path fill="none" stroke="#C346FF" stroke-width="2.5" stroke-linecap="round" stroke-linejoin="round" stroke-miterlimit="10" d="
			M811.99,139.357c-2.815,7.545-5.078,15.552-4.678,23.676c0.103,2.132,0.406,4.297,0.837,6.388
			c0.519,2.581,2.481,9.78,3.174,12.488c2.083,8.348,3.781,17.021,2.857,25.652c-0.294,2.986-0.842,6.062-1.487,8.995
			c-1.358,6.186-4.992,18.969-6.469,25.151c-3.439,14.287-6.25,29.143-4.795,43.881c0.469,4.364,1.364,8.741,3.068,12.801
			c1.167,2.778,2.762,5.397,4.697,7.707c5.072,6.074,12.323,9.988,19.865,12.108c4.612,1.303,9.463,1.943,14.231,2.35
			c5.29,0.503,12.914,0.708,18.273,0.995c10.295,0.31,21.527,0.799,31.772-0.088c5.11-0.468,10.286-1.345,15-3.448
			c2.714-1.207,5.265-2.812,7.493-4.779c3.289-2.894,5.901-6.524,7.911-10.401c3.23-6.266,4.806-13.395,4.518-20.439
			c-0.229-5.457-1.599-10.834-3.416-15.964"/>
	</g>
	<g id="POLYLINE_1191_">
		
			<path fill="none" stroke="#C346FF" stroke-width="2.5" stroke-linecap="round" stroke-linejoin="round" stroke-miterlimit="10" d="
			M767.064,112.497c-1.73,1.021-3.435,2.159-4.848,3.596c-1.251,1.269-2.266,2.901-2.277,4.732c-0.02,1.164,0.333,2.303,0.809,3.354
			c0.996,2.228,2.586,4.136,4.294,5.857c4.362,4.332,9.801,8.321,14.704,12.048"/>
	</g>
	<g id="POLYLINE_1190_">
		
			<path fill="none" stroke="#C346FF" stroke-width="2.5" stroke-linecap="round" stroke-linejoin="round" stroke-miterlimit="10" d="
			M783.47,89.819c-1.115,0.968-2.194,2.016-3.026,3.243c-0.563,0.835-0.997,1.78-1.122,2.786c-0.168,1.271,0.175,2.545,0.644,3.717
			c0.679,1.698,1.735,3.228,2.951,4.585c1.592,1.773,3.471,3.311,5.401,4.702"/>
	</g>
	<g id="POLYLINE_1189_">
		
			<path fill="none" stroke="#C346FF" stroke-width="2.5" stroke-linecap="round" stroke-linejoin="round" stroke-miterlimit="10" d="
			M854.252,102.097c-15.422-5.948-31.648-10.476-48.136-12.048c-8.239-0.792-16.701-0.816-24.941-0.035
			c-6.31,0.62-12.792,1.554-18.975,2.967c-3.787,0.889-7.604,1.984-11.139,3.624c-1.673,0.8-3.353,1.7-4.786,2.886
			c-0.658,0.569-1.317,1.282-1.4,2.187c-0.083,1.044,0.6,1.965,1.24,2.724c1.608,1.852,3.715,3.201,5.856,4.357
			c3.623,1.917,7.545,3.338,11.442,4.589"/>
	</g>
	<g id="POLYLINE_1188_">
		
			<path fill="none" stroke="#C346FF" stroke-width="2.5" stroke-linecap="round" stroke-linejoin="round" stroke-miterlimit="10" d="
			M866.844,239.014c7.84,14.229,19.207,23.674,34.517,29.021c2.211,0.746,4.517,1.34,6.848,1.528
			c2.348,0.201,5.148-0.032,7.495,0.172c0.746,0.066,1.48,0.256,2.163,0.563c0.443,0.177,1.013,0.514,1.506,0.482
			c0.187-0.013,0.362-0.097,0.508-0.212c0.251-0.196,0.449-0.454,0.639-0.707c0.359-0.469,0.735-1.136,1.238-1.461
			c0.242-0.153,0.529-0.216,0.811-0.24l0.364-0.03c0.201-0.019,0.409-0.055,0.581-0.167c0.3-0.203,0.5-0.59,0.706-0.881
			c0.183-0.266,0.393-0.532,0.682-0.688c0.265-0.142,0.574-0.167,0.869-0.181c0.513-0.03,1.164,0.036,1.579-0.321
			c0.117-0.103,0.201-0.239,0.265-0.38c0.126-0.284,0.188-0.596,0.243-0.9c0.102-0.559,0.157-1.314,0.403-1.827
			c0.115-0.236,0.298-0.432,0.495-0.601c0.248-0.21,0.534-0.433,0.712-0.706c0.152-0.226,0.246-0.488,0.297-0.755
			c0.091-0.478,0.086-0.975,0.066-1.46c-0.129-2.159-0.575-4.429-0.938-6.563c-1.417-8.168-4.873-15.863-9.249-22.86
			c-4.412-7.076-9.672-13.965-14.838-20.509"/>
	</g>
	<g id="POLYLINE_1187_">
		
			<path fill="none" stroke="#C346FF" stroke-width="2.5" stroke-linecap="round" stroke-linejoin="round" stroke-miterlimit="10" d="
			M945.841,155.268c-0.372,0.409-0.871,0.688-1.396,0.848c-0.522,0.157-1.083,0.206-1.62,0.105
			c-0.916-0.166-1.669-0.804-2.196-1.546c-0.428-0.605-0.771-1.288-0.927-2.016c-0.069-0.339-0.087-0.698,0.009-1.034
			c0.075-0.266,0.226-0.508,0.423-0.7c0.288-0.281,0.654-0.474,1.031-0.607c0.587-0.204,1.227-0.256,1.84-0.155
			c0.668,0.11,1.298,0.404,1.852,0.789c0.516,0.363,0.983,0.817,1.296,1.368c0.251,0.442,0.373,0.959,0.33,1.466
			C946.44,154.332,946.21,154.862,945.841,155.268z"/>
	</g>
	<g id="POLYLINE_1186_">
		
			<path fill="none" stroke="#C346FF" stroke-width="2.5" stroke-linecap="round" stroke-linejoin="round" stroke-miterlimit="10" d="
			M921.062,145.933c-0.227-2.643-0.858-5.312-2.182-7.63c-0.431-0.73-0.944-1.43-1.605-1.967c-0.39-0.314-0.843-0.57-1.341-0.658
			c-0.437-0.081-0.899-0.008-1.291,0.2c-0.469,0.245-0.839,0.643-1.131,1.077c-0.585,0.884-0.903,1.92-1.111,2.952
			c-0.345,1.78-0.353,3.62-0.161,5.419c0.23,2.049,0.724,4.091,1.591,5.967c0.483,1.022,1.08,2.022,1.917,2.794
			c0.428,0.389,0.936,0.72,1.51,0.836c0.48,0.101,0.991,0.015,1.415-0.231c0.693-0.4,1.153-1.098,1.487-1.807
			c0.409-0.884,0.643-1.845,0.789-2.805C921.15,148.712,921.169,147.31,921.062,145.933z"/>
	</g>
	<g id="POLYLINE_1185_">
		
			<path fill="none" stroke="#C346FF" stroke-width="2.5" stroke-linecap="round" stroke-linejoin="round" stroke-miterlimit="10" d="
			M911.818,179.177c0.021-5.492-2.831-10.762-7.44-13.749c-8.433-5.493-19.759-2.202-23.935,6.956
			c-1.954,4.251-1.955,9.334,0,13.585c4.175,9.158,15.502,12.449,23.935,6.956C908.987,189.939,911.839,184.67,911.818,179.177z"/>
	</g>
	<g id="POLYLINE_1184_">
		
			<path fill="none" stroke="#C346FF" stroke-width="2.5" stroke-linecap="round" stroke-linejoin="round" stroke-miterlimit="10" d="
			M443.076,225.907c-1.641,0.422-3.585,0.967-5.206,1.459"/>
	</g>
	<g id="POLYLINE_1183_">
		
			<path fill="none" stroke="#C346FF" stroke-width="2.5" stroke-linecap="round" stroke-linejoin="round" stroke-miterlimit="10" d="
			M475.743,235.248c10.292-0.315,21.062,0.37,31.326,1.204c4.456,0.351,22.948,2.312,27.059,2.333
			c0.745-0.005,1.507-0.03,2.232-0.214c0.346-0.092,0.694-0.237,0.946-0.499c0.24-0.25,0.372-0.59,0.415-0.931
			c0.089-0.759-0.415-1.421-0.937-1.915c-0.936-0.863-2.076-1.482-3.214-2.038c-2.211-1.048-4.63-1.832-6.969-2.551
			c-4.812-1.458-10.522-2.8-15.445-3.938c-7.543-1.719-15.482-3.216-23.178-3.973c-7.718-0.778-15.614-0.93-23.351-0.353"/>
	</g>
	<g id="POLYLINE_1182_">
		
			<line fill="none" stroke="#C346FF" stroke-width="2.5" stroke-linecap="round" stroke-linejoin="round" stroke-miterlimit="10" x1="435.127" y1="239.92" x2="441.803" y2="238.848"/>
	</g>
	<g id="POLYLINE_1181_">
		
			<path fill="none" stroke="#C346FF" stroke-width="2.5" stroke-linecap="round" stroke-linejoin="round" stroke-miterlimit="10" d="
			M488.841,273.879c5.812,0.189,36.071,2.191,42.363,2.511c1.703,0.071,3.627,0.146,5.324,0.099
			c1.189-0.042,2.411-0.099,3.556-0.446c0.439-0.141,0.88-0.335,1.209-0.668c0.229-0.23,0.378-0.535,0.426-0.856
			c0.194-1.229-0.775-2.228-1.669-2.923c-0.846-0.652-1.802-1.18-2.757-1.654c-1.82-0.894-3.811-1.657-5.721-2.342
			c-10.962-3.817-22.479-6.188-33.991-7.575c-6.363-0.749-13.248-1.398-19.648-1.553"/>
	</g>
	<g id="POLYLINE_1180_">
		
			<path fill="none" stroke="#C346FF" stroke-width="2.5" stroke-linecap="round" stroke-linejoin="round" stroke-miterlimit="10" d="
			M429.96,276.863c13.584-2.243,27.582-3.288,41.349-3.354"/>
	</g>
	<g id="POLYLINE_1179_">
		
			<path fill="none" stroke="#C346FF" stroke-width="2.5" stroke-linecap="round" stroke-linejoin="round" stroke-miterlimit="10" d="
			M463.496,258.77c-10.85,0.709-21.793,2.504-32.415,4.825"/>
	</g>
	<g id="POLYLINE_1178_">
		
			<path fill="none" stroke="#C346FF" stroke-width="2.5" stroke-linecap="round" stroke-linejoin="round" stroke-miterlimit="10" d="
			M524.841,323.392c-0.463,0.828-0.893,1.701-1.09,2.634c-0.099,0.49-0.127,1.01,0.025,1.491c0.182,0.599,0.654,1.04,1.199,1.32
			c0.876,0.445,1.86,0.642,2.83,0.752c2.241,0.321,36.244,0.127,39.18,0.141c0.885-0.049,1.849-0.113,2.578-0.672
			c0.672-0.535,1.01-1.386,1.153-2.212c0.144-0.906,0.081-1.931-0.511-2.674c-0.286-0.359-0.665-0.634-1.06-0.862
			c-1.537-0.86-3.883-1.417-5.567-1.969c-4.294-1.36-8.476-3.295-12.445-5.418"/>
	</g>
	<g id="POLYLINE_1177_">
		
			<path fill="none" stroke="#C346FF" stroke-width="2.5" stroke-linecap="round" stroke-linejoin="round" stroke-miterlimit="10" d="
			M447.893,317.538c-1.021,1.707-1.987,3.516-2.394,5.479c-0.158,0.798-0.203,1.632-0.023,2.429c0.176,0.777,0.568,1.51,1.133,2.073
			c0.566,0.566,1.297,0.937,2.049,1.193c1.208,0.406,2.497,0.576,3.76,0.706c1.907,0.187,4.043,0.248,5.965,0.291
			c4.336,0.028,25.52,0.132,30.011-0.044c0.986-0.078,2.018-0.156,2.924-0.586c0.514-0.249,0.926-0.667,1.09-1.229
			c0.129-0.425,0.132-0.878,0.087-1.316c-0.084-0.786-0.317-1.56-0.568-2.308"/>
	</g>
	<g id="POLYLINE_1176_">
		
			<path fill="none" stroke="#C346FF" stroke-width="2.5" stroke-linecap="round" stroke-linejoin="round" stroke-miterlimit="10" d="
			M440.219,161.313c-0.078-6.029,0.156-12.152,1.02-18.124c0.79-5.411,2.122-10.824,4.393-15.813
			c1.451-3.194,3.324-6.235,5.53-8.962c2.39-2.969,5.214-5.66,8.058-8.19c4.38-3.858,9.18-7.354,14.407-9.975
			c4.319-2.175,8.966-3.748,13.736-4.561c7.092-1.199,14.409-1.023,21.512-0.001c4.668,0.707,9.367,1.759,13.734,3.584
			c1.724,0.725,3.406,1.598,4.988,2.596c1.965,1.229,3.86,2.728,5.643,4.209c4.394,3.736,9.295,7.764,13.219,11.983
			c2.219,2.38,4.299,4.96,5.882,7.812c2.96,5.226,4.182,11.244,4.589,17.185c0.336,4.483,0.29,10.131,0.849,14.588
			c0.2,1.576,0.528,3.16,1.031,4.668c1.016,3.187,2.925,6.183,3.846,9.402c0.384,1.355,0.576,2.769,0.63,4.175
			c0.279,9.047-4.224,17.439-9.539,24.474c-0.494,0.653-2.345,2.985-2.762,3.622c-0.142,0.213-0.28,0.436-0.389,0.668
			c-0.115,0.244-0.2,0.506-0.213,0.777c-0.02,0.344,0.08,0.683,0.226,0.992c0.294,0.612,0.726,1.165,1.135,1.704
			c3.281,4.073,6.571,8.404,9.217,12.91c1.805,3.062,3.405,6.309,4.293,9.764c0.789,3.004,1.048,6.145,1.011,9.244
			c-0.026,2.794-0.258,5.624-0.886,8.351c-1.039,4.605-3.119,8.932-5.637,12.905"/>
	</g>
	<g id="POLYLINE_1175_">
		
			<path fill="none" stroke="#C346FF" stroke-width="2.5" stroke-linecap="round" stroke-linejoin="round" stroke-miterlimit="10" d="
			M441.51,212.263c-4.176,16.989-8.38,34.818-10.532,52.174c-1.198,10.082-1.78,20.47,0.338,30.468
			c0.852,4.077,2.11,8.131,4.181,11.763c4.19,7.437,11.173,11.08,19.166,13.217c7.618,2.003,15.77,2.749,23.602,3.485
			c13.469,1.114,27.361,1.492,40.848,0.537c4.915-0.365,10.014-0.93,14.857-1.852c3.977-0.763,7.955-1.809,11.7-3.365
			c4.464-1.84,8.606-4.517,12.088-7.865c3.602-3.467,6.635-7.635,8.398-12.337c1.654-4.412,2.104-9.208,1.809-13.888
			c-0.417-6.734-2.166-13.469-5.669-19.273c-3.298-5.473-7.653-11-9.725-17.103c-1.005-2.872-1.674-5.914-2.161-8.915
			c-0.693-4.338-1.058-8.85-1.279-13.237"/>
	</g>
	<g id="POLYLINE_1174_">
		
			<path fill="none" stroke="#C346FF" stroke-width="2.5" stroke-linecap="round" stroke-linejoin="round" stroke-miterlimit="10" d="
			M560.291,165.982c-3.335,0.296-5.032,4.611-5.799,7.412c-0.562,2.077-0.881,4.241-1.003,6.389
			c-0.111,2.106-0.018,4.251,0.48,6.307c0.346,1.417,0.9,2.801,1.742,3.998c0.775,1.111,1.809,2.043,2.999,2.69"/>
	</g>
	<g id="POLYLINE_1173_">
		
			<path fill="none" stroke="#C346FF" stroke-width="2.5" stroke-linecap="round" stroke-linejoin="round" stroke-miterlimit="10" d="
			M576.723,116.332c7.582-8.81,14.636-20.625,13.42-32.663"/>
	</g>
	<g id="POLYLINE_1172_">
		
			<path fill="none" stroke="#C346FF" stroke-width="2.5" stroke-linecap="round" stroke-linejoin="round" stroke-miterlimit="10" d="
			M550.123,122.432c10.086-1.243,20.091-3.667,29.629-7.174c9.684-3.582,19.104-8.365,26.928-15.179
			c2.122-1.858,4.16-3.894,5.927-6.094c1.008-1.272,1.985-2.616,2.665-4.095c0.561-1.223,0.92-2.676,0.356-3.961
			c-0.252-0.595-0.656-1.126-1.171-1.518c-0.877-0.669-1.965-0.987-3.03-1.212c-2.282-0.45-4.659-0.521-6.98-0.52
			c-6.035,0.052-12.531,0.786-18.537,1.477c-7.39,0.862-14.885,2.153-22.028,4.256c-11.744,3.407-22.866,8.905-32.939,15.812"/>
	</g>
	<g id="POLYLINE_1171_">
		
			<path fill="none" stroke="#C346FF" stroke-width="2.5" stroke-linecap="round" stroke-linejoin="round" stroke-miterlimit="10" d="
			M406.707,80.383c0.715,13.254,6.312,25.786,13.726,36.627"/>
	</g>
	<g id="POLYLINE_1170_">
		
			<path fill="none" stroke="#C346FF" stroke-width="2.5" stroke-linecap="round" stroke-linejoin="round" stroke-miterlimit="10" d="
			M447.081,124.486c-6.647-1.319-13.487-2.924-19.932-5.02c-4.8-1.573-9.573-3.472-13.989-5.931
			c-1.958-1.086-3.902-2.323-5.725-3.625c-2.65-1.853-8.51-6.735-11.117-8.824c-3.651-3.021-7.627-6.288-11.005-9.598
			c-1.206-1.196-2.409-2.461-3.407-3.839c-1.204-1.671-2.357-3.811-1.633-5.905c0.208-0.606,0.525-1.185,0.971-1.649
			c0.455-0.477,1.034-0.823,1.643-1.067c1.239-0.489,2.589-0.644,3.91-0.728c2.44-0.133,4.97,0.03,7.404,0.24
			c9.272,0.912,18.545,2.805,27.406,5.69c9.019,2.973,17.752,7.172,25.887,12.056c3.21,1.946,6.425,4.069,9.373,6.396
			c1.898,1.518,3.777,3.149,5.313,5.041"/>
	</g>
	<g id="POLYLINE_1169_">
		
			<polyline fill="none" stroke="#C346FF" stroke-width="2.5" stroke-linecap="round" stroke-linejoin="round" stroke-miterlimit="10" points="
			466.411,252.025 467.392,259.548 472.773,251.341 473.013,260.389 476.861,255.069 477.403,259.696 		"/>
	</g>
	<g id="POLYLINE_1168_">
		
			<path fill="none" stroke="#C346FF" stroke-width="2.5" stroke-linecap="round" stroke-linejoin="round" stroke-miterlimit="10" d="
			M377.014,148.736c-0.096,19.745,2.726,39.658,7.753,58.737c20.951-1.436,42.163,0.782,62.434,6.23
			c-1.097,2.342-2.134,4.81-2.892,7.283c-0.82,2.657-1.392,5.435-1.789,8.184c-0.688,4.88-0.941,9.88-0.492,14.794l25.002,6.811
			c-2.795,5.583-5.073,11.518-6.552,17.588c6.39,2.878,13.105,6.159,19.221,9.578l-0.532,14.369l3.725-0.213
			c1.336-4.492,3.498-11.053,5.005-15.529l1.301-3.677l-14.028-8.202c3.683-8.028,7.133-16.596,10.012-24.945
			c-7.566-4.063-15.695-7.287-24.04-9.333c6.283-14.251,12.951-30.878,18.27-45.535
			C449.451,160.939,415.357,148.893,377.014,148.736z"/>
	</g>
	<g id="POLYLINE_1167_">
		
			<path fill="none" stroke="#C346FF" stroke-width="2.5" stroke-linecap="round" stroke-linejoin="round" stroke-miterlimit="10" d="
			M158.338,162.264c-0.337,0.077-0.694,0.112-1.035,0.036c-0.445-0.104-0.847-0.394-1.239-0.617
			c-0.333-0.203-0.677-0.414-0.967-0.676c-0.219-0.196-0.481-0.518-0.295-0.817c0.065-0.104,0.165-0.179,0.27-0.238
			c0.194-0.107,0.412-0.167,0.628-0.215c0.522-0.113,1.067-0.154,1.599-0.171c0.661-0.016,1.337,0.011,1.99,0.12
			c0.333,0.063,0.68,0.129,0.972,0.308c0.153,0.097,0.262,0.244,0.24,0.433c-0.035,0.277-0.251,0.545-0.428,0.753
			C159.617,161.701,159.023,162.12,158.338,162.264z"/>
	</g>
	<g id="POLYLINE_1166_">
		
			<path fill="none" stroke="#C346FF" stroke-width="2.5" stroke-linecap="round" stroke-linejoin="round" stroke-miterlimit="10" d="
			M134.946,147.217c0.115-5.152-3.741-9.58-8.997-9.607c-5.463,0.001-9.763,4.733-9.798,10.098
			c-0.015,1.544,0.328,3.095,1.017,4.478c0.683,1.377,1.713,2.587,2.981,3.459c1.195,0.827,2.6,1.35,4.044,1.507
			c1.415,0.158,2.866-0.033,4.199-0.53C132.266,155.19,134.88,151.323,134.946,147.217z"/>
	</g>
	<g id="POLYLINE_1165_">
		
			<path fill="none" stroke="#C346FF" stroke-width="2.5" stroke-linecap="round" stroke-linejoin="round" stroke-miterlimit="10" d="
			M179.944,147.486c-0.115-5.152,3.741-9.58,8.997-9.607c5.463,0.001,9.763,4.733,9.798,10.098c0.015,1.544-0.328,3.095-1.017,4.478
			c-0.683,1.377-1.713,2.587-2.981,3.459c-1.195,0.827-2.6,1.35-4.044,1.507c-1.415,0.158-2.866-0.033-4.199-0.53
			C182.623,155.459,180.01,151.592,179.944,147.486z"/>
	</g>
	<g id="POLYLINE_1164_">
		
			<polyline fill="none" stroke="#C346FF" stroke-width="2.5" stroke-linecap="round" stroke-linejoin="round" stroke-miterlimit="10" points="
			220.517,236.734 220.495,226.813 225.174,233.778 225.83,229.685 228.767,234.028 229.642,228.091 233.954,235.122 
			234.76,230.835 		"/>
	</g>
	<g id="POLYLINE_1163_">
		
			<path fill="none" stroke="#C346FF" stroke-width="2.5" stroke-linecap="round" stroke-linejoin="round" stroke-miterlimit="10" d="
			M218.11,254.462l22.944,1.896c-1.707-9.448-4.165-19.035-7.136-28.16c13.447,2.245,27.631,3.927,41.237,4.706
			c-3.461-16.126-8.02-32.774-13.154-48.45c15.508,1.927,34.051,3.681,49.646,4.706c11.703-19.103,21.125-39.885,27.649-61.32
			c-38.922,4.287-78.196,11.331-116.048,21.417c5.072,19.855,11.629,39.634,19.723,58.467c-9.629,0.209-19.339,1.365-28.751,3.41
			c2.101,10.405,4.803,21.175,8.055,31.279h-6.704"/>
	</g>
	<g id="POLYLINE_1162_">
		
			<path fill="none" stroke="#C346FF" stroke-width="2.5" stroke-linecap="round" stroke-linejoin="round" stroke-miterlimit="10" d="
			M186.732,321.599c-0.365,1.46-0.746,2.976-0.881,4.476c-0.084,0.981-0.02,2.129,0.766,2.827c0.335,0.296,0.761,0.465,1.19,0.573
			c1.007,0.243,2.09,0.245,3.122,0.271c0,0,16.838,0.011,16.838,0.011c0.268-0.003,0.603,0.001,0.868-0.017
			c0.312-0.02,0.63-0.06,0.922-0.176c0.239-0.094,0.455-0.25,0.606-0.458c0.284-0.395,0.391-0.89,0.432-1.367
			c0.036-0.538,0-1.095-0.186-1.606c-0.116-0.305-0.293-0.585-0.482-0.849c-1.008-1.345-2.37-2.647-3.54-3.859"/>
	</g>
	<g id="POLYLINE_1161_">
		
			<path fill="none" stroke="#C346FF" stroke-width="2.5" stroke-linecap="round" stroke-linejoin="round" stroke-miterlimit="10" d="
			M112.431,322.61c-0.766,0.695-2.853,2.402-3.523,3.134c-0.214,0.231-0.413,0.481-0.569,0.755c-0.348,0.615-0.52,1.363-0.352,2.06
			c0.078,0.315,0.247,0.617,0.518,0.803c0.214,0.151,0.469,0.232,0.724,0.284c0.439,0.087,0.9,0.098,1.347,0.107l18.377,0.004
			c0,0,0.769-0.003,0.769-0.003c0.166-0.004,0.375-0.007,0.539-0.018c0.335-0.021,0.677-0.057,0.993-0.174
			c0.244-0.089,0.465-0.236,0.645-0.423c0.558-0.594,0.816-1.422,0.88-2.222c0.051-0.652-0.083-1.306-0.243-1.936l-0.942-3.418"/>
	</g>
	<g id="POLYLINE_1160_">
		
			<path fill="none" stroke="#C346FF" stroke-width="2.5" stroke-linecap="round" stroke-linejoin="round" stroke-miterlimit="10" d="
			M102.964,223.178c-0.74,6.562-1.841,14.311-2.96,20.805c-0.91,5.61-4.157,21.305-5.313,27.145
			c-0.995,5.354-2.04,10.99-2.301,16.427c-0.166,3.459,0.018,6.978,0.768,10.365c0.756,3.459,2.092,6.797,3.72,9.934
			c1.579,3.022,3.445,5.94,5.656,8.539c1.824,2.137,3.974,4.09,6.581,5.211c2.167,0.953,4.552,1.29,6.9,1.409
			c3.108,0.151,6.3,0.044,9.391-0.31c3.81-0.423,7.557-1.329,11.096-2.813c2.801-1.136,6.659-3.097,9.516-4.058
			c2.156-0.736,4.409-1.239,6.665-1.544c4.332-0.538,8.787-0.708,13.11-0.006c2.327,0.381,4.595,1.15,6.775,2.035
			c4.799,2.028,9.955,4.161,14.975,5.51c2.911,0.802,5.934,1.346,8.961,1.279c2.453-0.048,4.929-0.397,7.317-0.954
			c1.695-0.41,3.406-0.914,4.945-1.748c1.357-0.729,2.561-1.728,3.635-2.824c1.234-1.259,2.335-2.663,3.317-4.125
			c2.139-3.189,3.717-6.757,4.942-10.388c0.934-2.795,1.674-5.72,2.103-8.637c0.406-2.743,0.539-5.586,0.457-8.357
			c-0.141-4.78-0.834-9.669-1.632-14.381c-1.869-10.863-5.229-24.234-7.101-35.095c-0.812-4.777-1.623-9.952-2.031-14.778
			c-0.062-0.871-0.131-1.815-0.079-2.691"/>
	</g>
	<g id="POLYLINE_1159_">
		
			<path fill="none" stroke="#C346FF" stroke-width="2.5" stroke-linecap="round" stroke-linejoin="round" stroke-miterlimit="10" d="
			M188.97,209.501c-8.792,13.389-19.242,31.007-20.178,47.261c0.009,0.195,0.043,0.39,0.105,0.576
			c0.224,0.656,0.615,1.41,0.857,2.059c0.074,0.198,0.139,0.405,0.161,0.616c0.021,0.189-0.001,0.381-0.031,0.568
			c-0.127,0.814-0.322,1.699-0.307,2.523c0.008,0.114,0.025,0.232,0.079,0.334c0.061,0.121,0.178,0.199,0.301,0.246
			c0.438,0.149,0.927,0.168,1.406,0.385c0.535,0.229,0.933,0.68,1.286,1.129c0.15,0.189,0.443,0.612,0.615,0.773
			c0.067,0.063,0.143,0.119,0.227,0.158c0.141,0.067,0.299,0.091,0.454,0.104c0.557,0.038,1.27-0.033,1.826,0.018
			c0.116,0.011,0.233,0.03,0.344,0.067c0.141,0.045,0.27,0.127,0.367,0.24c0.107,0.127,0.218,0.321,0.31,0.459
			c0.17,0.251,0.355,0.5,0.585,0.698c0.12,0.103,0.258,0.188,0.41,0.233c0.18,0.055,0.372,0.059,0.558,0.052
			c0.68-0.026,1.648-0.238,2.331-0.257c0.087,0.003,0.175,0.02,0.254,0.059c0.064,0.032,0.122,0.076,0.177,0.123
			c0.382,0.349,0.848,0.909,1.231,1.256c0.188,0.17,0.387,0.344,0.631,0.425c0.1,0.031,0.209,0.039,0.31,0.008
			c0.09-0.028,0.167-0.086,0.237-0.148c0.513-0.513,1.153-1.489,1.621-2.056c0.435-0.557,0.917-1.089,1.461-1.542
			c0.74-0.637,2.364-1.794,3.167-2.394c1.975-1.464,4.144-3.148,5.99-4.762c2.471-2.153,4.882-4.48,7.031-6.957
			c1.53-1.77,2.948-3.679,4.013-5.769c1.992-3.913,2.827-8.36,3.68-12.634c0.641-3.458,1.231-7.228,1.614-10.724
			c0.377-3.369,0.488-6.814,0.121-10.189c-0.426-4.353-1.552-9.378-2.429-13.678c-0.382-1.882-0.665-3.849-0.756-5.769
			c-0.033-0.937-0.142-3.254-0.143-4.182c-0.001-0.372,0.02-0.773,0.071-1.144c0.086-0.641,0.292-1.275,0.658-1.813"/>
	</g>
	<g id="POLYLINE_1158_">
		
			<path fill="none" stroke="#C346FF" stroke-width="2.5" stroke-linecap="round" stroke-linejoin="round" stroke-miterlimit="10" d="
			M106.181,186.733c0.124,1.691,0.264,3.575,0.209,5.262c-0.033,1.199-0.18,2.432-0.365,3.617l-2.083,12.183
			c-0.585,3.767-1.068,7.65-1.094,11.464c-0.033,3.645,0.349,7.336,1.012,10.918c1.24,6.416,3.204,12.815,6.551,18.462
			c3.836,6.384,9.583,11.414,15.783,15.435c1.041,0.687,3.953,2.437,4.877,3.196c0.723,0.576,1.386,1.389,2.001,2.081
			c0.179,0.196,0.366,0.4,0.573,0.566c0.112,0.088,0.234,0.168,0.372,0.206c0.131,0.039,0.274,0.024,0.399-0.032
			c0.351-0.161,0.777-0.643,1.073-0.903c0.389-0.348,0.805-0.713,1.321-0.849c0.572-0.152,1.201,0.037,1.763,0.156
			c0.335,0.064,0.712,0.122,1.025-0.05c0.129-0.071,0.233-0.179,0.315-0.301c0.253-0.386,0.383-0.884,0.526-1.319
			c0.108-0.315,0.183-0.635,0.514-0.701c0.091-0.02,0.186-0.024,0.28-0.024c0.491,0.01,1.217,0.123,1.707,0.141
			c0.297,0.008,0.61,0.024,0.889-0.092c0.179-0.074,0.31-0.223,0.385-0.4c0.135-0.329,0.199-0.708,0.387-1.015
			c0.269-0.475,0.746-0.741,1.228-0.96c0.409-0.205,1.009-0.401,1.361-0.692c0.091-0.078,0.17-0.175,0.21-0.29
			c0.032-0.091,0.04-0.188,0.034-0.284c-0.033-0.371-0.302-1.097-0.398-1.506c-0.218-0.857-0.476-1.747-0.391-2.64
			c0.063-0.648,0.352-1.353,0.47-1.991c0.082-0.412,0.067-0.838,0.021-1.254c-1.015-6.782-3.294-13.376-5.955-19.677
			c-3.436-7.899-9.348-18.639-13.392-26.344"/>
	</g>
	<g id="POLYLINE_1157_">
		
			<path fill="none" stroke="#C346FF" stroke-width="2.5" stroke-linecap="round" stroke-linejoin="round" stroke-miterlimit="10" d="
			M102.953,180.816c1.904,2.978,4.557,5.747,7.983,6.881c1.094,0.352,2.265,0.503,3.409,0.363c0.988-0.118,1.948-0.458,2.792-0.984
			c1.548-0.959,2.67-2.487,3.395-4.137c1.543-3.578,1.539-7.651,0.792-11.422c-0.954-4.587-3.078-9.037-6.449-12.337
			c-1.665-1.602-3.697-2.934-5.991-3.385c-1.153-0.225-2.363-0.2-3.492,0.137c-1.091,0.321-2.089,0.929-2.907,1.715
			c-1.289,1.236-2.144,2.864-2.676,4.555"/>
	</g>
	<g id="POLYLINE_1156_">
		
			<path fill="none" stroke="#C346FF" stroke-width="2.5" stroke-linecap="round" stroke-linejoin="round" stroke-miterlimit="10" d="
			M211.881,181.572c-1.562,2.363-3.578,4.514-6.106,5.845c-1.285,0.67-2.718,1.107-4.175,1.109c-1.31,0.008-2.619-0.363-3.724-1.068
			c-1.52-0.959-2.624-2.468-3.343-4.096c-1.547-3.576-1.548-7.649-0.807-11.421c0.948-4.588,3.066-9.041,6.434-12.345
			c1.632-1.575,3.616-2.887,5.858-3.366c4.428-0.923,7.665,1.905,9.061,5.922"/>
	</g>
	<g id="POLYLINE_1155_">
		
			<path fill="none" stroke="#C346FF" stroke-width="2.5" stroke-linecap="round" stroke-linejoin="round" stroke-miterlimit="10" d="
			M245.889,111.751c3.384-1.171,5.612-4.214,7.457-7.125c1.321-2.088,2.333-4.384,3.137-6.716c0.666-1.923,1.291-3.992,1.757-5.973
			c0.316-1.417,0.637-2.929,0.216-4.357c-0.11-0.386-0.278-0.766-0.547-1.068c-0.719-0.802-1.896-0.868-2.904-0.81"/>
	</g>
	<g id="POLYLINE_1154_">
		
			<path fill="none" stroke="#C346FF" stroke-width="2.5" stroke-linecap="round" stroke-linejoin="round" stroke-miterlimit="10" d="
			M66.928,62.606c-0.665,0.207-1.313,0.513-1.836,0.98c-0.437,0.387-0.769,0.885-0.984,1.426c-0.324,0.808-0.429,1.689-0.502,2.551
			c-0.296,3.285,0.393,6.57,1.284,9.717c0.743,2.587,1.685,5.281,2.651,7.794c0.808,2.058,1.69,4.228,2.724,6.182
			c0.237,0.438,0.494,0.892,0.782,1.3c0.148,0.205,0.305,0.414,0.499,0.578"/>
	</g>
	<g id="POLYLINE_1152_">
		
			<path fill="none" stroke="#C346FF" stroke-width="2.5" stroke-linecap="round" stroke-linejoin="round" stroke-miterlimit="10" d="
			M108.114,118.237c0.126,0.443-0.035,0.896-0.178,1.314c-0.583,1.539-1.293,3.233-1.766,4.809c-0.733,2.306-1.357,4.863-1.905,7.22
			c-1.406,6.256-2.689,13.023-3.553,19.373c-1.543,11.464-1.707,24.028,4.451,34.247c2.981,4.895,7.612,8.542,12.513,11.389
			c6.356,3.7,13.432,6.097,20.658,7.391c6.184,1.124,12.583,1.584,18.865,1.566c11.363-0.036,22.815-1.923,33.437-6.011
			c6.092-2.381,12.212-5.431,16.567-10.443c2.418-2.78,4.213-6.079,5.486-9.525c1.472-3.986,2.263-8.223,2.419-12.467
			c0.174-4.479-0.263-9.073-0.788-13.519c-0.686-5.386-1.565-11.255-2.605-16.582c-0.806-4.125-1.951-8.301-3.334-12.269
			c-0.148-0.534-1.435-3.934-1.539-4.418c-0.059-0.191-0.105-0.398-0.127-0.597c-0.009-0.09-0.008-0.186,0.007-0.276
			c0.016-0.091,0.052-0.181,0.112-0.252c0.103-0.124,0.259-0.194,0.41-0.241c0.177-0.057,0.357-0.084,0.539-0.112
			c1.133-0.138,2.903-0.193,3.959-0.28c14.001-1.043,27.929-4.146,40.996-9.292c5.388-2.154,10.715-4.704,15.609-7.833
			c4.807-3.097,9.315-6.766,13.431-10.732c0.681-0.691,1.387-1.409,1.932-2.215c0.194-0.296,0.375-0.615,0.44-0.968
			c0.038-0.218,0.027-0.451-0.066-0.653c-0.075-0.159-0.205-0.285-0.349-0.383c-0.219-0.149-0.469-0.251-0.718-0.339
			c-0.468-0.161-0.967-0.277-1.452-0.376c-1.634-0.321-3.365-0.444-5.027-0.535c-4.22-0.202-8.884-0.103-13.114,0.031
			c-6.264,0.24-12.911,0.671-19.119,1.508c-5.141,0.692-10.358,1.726-15.376,3.04c-6.326,1.644-12.991,3.906-19.158,6.106
			c-5.229,1.933-14.439,5.235-19.496,7.429c-0.273,0.098-0.561,0.208-0.855,0.159c-0.129-0.021-0.252-0.069-0.369-0.126
			c-0.029-0.017-0.076-0.036-0.105-0.054c-0.075-0.041-0.164-0.093-0.237-0.137c0,0-0.066-0.04-0.066-0.04s-0.66-0.418-0.66-0.418
			c-0.884-0.546-1.857-0.996-2.814-1.4c-2.089-0.869-4.353-1.617-6.519-2.276c-5.947-1.773-12.126-3.034-18.33-3.373
			c-5.716-0.291-11.488,0.182-17.12,1.168c-5.468,0.967-10.906,2.475-15.897,4.942l-2.574,1.302
			c-0.374,0.172-0.745,0.362-1.147,0.455c-0.142,0.031-0.293,0.047-0.435,0.011c-0.061-0.015-0.119-0.04-0.173-0.072
			c-0.092-0.055-0.176-0.131-0.252-0.206c0,0-0.023-0.023-0.023-0.023s-0.145-0.149-0.145-0.149
			c-6.513-6.773-13.708-14.891-20.817-20.948c-4.274-3.67-9.003-6.968-13.899-9.754c-4.853-2.763-10.049-5.227-15.175-7.438
			c-5.327-2.279-10.87-4.42-16.41-6.121c-4.309-1.297-8.757-2.457-13.229-3.01c-0.697-0.066-1.429-0.158-2.124-0.025
			c-0.091,0.022-0.187,0.048-0.272,0.089c-0.109,0.05-0.209,0.124-0.275,0.225c-0.152,0.235-0.108,0.553-0.045,0.811
			c0.074,0.286,0.196,0.562,0.324,0.827c0.361,0.746,0.855,1.523,1.292,2.23c4.055,6.254,8.439,12.577,13.33,18.206
			c3.136,3.586,6.749,6.907,10.383,9.984c5.279,4.384,11.982,10.177,17.517,14.138c6.739,4.954,15.182,9.531,22.462,13.695
			c0.688,0.424,1.407,0.857,1.987,1.426C107.826,117.666,108.028,117.927,108.114,118.237z"/>
	</g>
	<g id="POLYLINE_1038_">
		
			<path fill="none" stroke="#C346FF" stroke-width="2.5" stroke-linecap="round" stroke-linejoin="round" stroke-miterlimit="10" d="
			M139.09,170.824c1.126,1.938,2.695,3.783,4.859,4.559c1.281,0.456,2.695,0.567,4.04,0.401c2.832-0.385,5.325-2.252,7.833-3.5
			c0.43-0.21,0.877-0.408,1.342-0.523c0.676-0.179,1.387-0.076,2.044,0.131c1.963,0.629,3.773,2.113,5.606,3.021
			c0.964,0.498,2.023,0.843,3.115,0.867c0.69,0.023,1.388-0.054,2.068-0.165c0.706-0.113,1.414-0.288,2.063-0.593
			c1.859-0.859,3.08-2.638,3.938-4.435"/>
	</g>
</g>
<g id="_x32_D_x24_AG-OUTLINE">
	<g id="POLYLINE_2410_">
		
			<path fill="none" stroke="#C346FF" stroke-width="3.25" stroke-linecap="round" stroke-linejoin="round" stroke-miterlimit="10" d="
			M945.841,155.268c0.477-0.522,0.716-1.251,0.637-1.954c-0.069-0.691-0.453-1.308-0.937-1.791c-0.598-0.595-1.346-1.053-2.16-1.28
			c-0.82-0.223-1.718-0.163-2.494,0.185c-0.382,0.174-0.748,0.42-0.981,0.775l-4.515-2.231c-1.707-0.872-3.403-1.839-4.888-3.059
			c-0.551-0.444-1.07-0.961-1.347-1.623c-0.373-0.866-0.453-1.839-0.538-2.77c-0.384-5.784-0.869-11.84-2.573-17.396
			c-0.654-2.143-1.497-4.26-2.612-6.207c-1.268-2.229-2.874-4.282-4.661-6.118c-1.698-1.743-3.596-3.332-5.565-4.76
			c-2.658-1.934-5.544-3.609-8.579-4.879c-5.969-2.522-12.487-3.483-18.918-3.886c-6.783-0.389-13.721-0.191-20.435,0.884
			c-3.744,0.62-7.503,1.498-11.023,2.939c-15.942-6.157-32.73-10.768-49.8-12.197c-7.713-0.648-15.609-0.613-23.314,0.118
			c-6.636,0.661-13.454,1.643-19.939,3.202c-3.26,0.802-6.551,1.782-9.621,3.149c-1.768,0.805-3.533,1.733-5.07,2.93
			c-0.769,0.626-1.588,1.423-1.639,2.474c-0.018,0.403,0.088,0.803,0.255,1.167c0.268,0.584,0.672,1.099,1.094,1.58
			c1.596,1.791,3.657,3.109,5.754,4.24c3.623,1.917,7.545,3.338,11.442,4.589c-8.618,2.161-17.298,4.852-25.176,9.016
			c-1.873,1.028-3.756,2.147-5.323,3.613c-1.066,1.009-2.054,2.325-2.021,3.86c0.045,2.621,2.534,4.188,4.657,5.195
			c2.716,1.262,5.656,2.075,8.555,2.798c5.534,1.337,11.374,2.252,17.027,2.923c8.493,0.969,17.225,1.531,25.774,1.327
			c8.363-0.196,16.866-1.157,25.083-2.723c-2.872,7.695-5.169,15.879-4.65,24.165c0.197,3.392,0.939,6.801,1.808,10.081
			c2.016,7.695,4.437,16.3,5.087,24.21c0.507,5.436,0.028,10.95-1.033,16.293c-1.8,8.913-5.437,20.799-7.473,29.655
			c-2.815,11.949-5.027,24.3-4.654,36.617l-16.175,6.714l-1.183-31.405c-6.503,5.379-12.702,11.385-18.396,17.608
			c-0.08-15.595-1.076-31.928-2.759-47.436c-15.707,8.521-31.5,18.504-46.122,28.777c0.014-17.164-0.72-79.654-0.92-97.895
			c-27.519,12.791-54.097,28.356-78.973,45.728c1.158,25.094,1.537,55.036,1.051,80.156c20.353-15.664,39.586-33.318,57.16-52.036
			c3.796,17.167,7.967,37.771,11.038,55.058c8.609-6.243,28.089-20.258,36.661-26.149c2.324,8.29,9.498,32.033,12.089,40.604
			c6.398-6.659,12.647-13.99,18.134-21.419c1.729,3.445,3.328,7.222,4.72,10.82c1.324,3.415,2.513,7.052,3.427,10.599l20.926-11.972
			c0.79,5.308,2.348,10.614,5.331,15.122c4.392,6.747,11.437,11.378,18.951,13.998c4.385,1.547,9.026,2.419,13.637,2.946
			c-0.78,1.149-1.554,2.36-2.171,3.604c-0.341,0.697-0.653,1.425-0.826,2.183c-0.112,0.504-0.165,1.036-0.043,1.543
			c0.087,0.369,0.282,0.71,0.553,0.974c0.5,0.489,1.182,0.735,1.852,0.889c1.398,0.303,2.884,0.316,4.31,0.352
			c0,0,56.254,0.017,56.254,0.017c0.258-0.008,0.951,0.004,1.196-0.008c0.501-0.018,1.021-0.028,1.5-0.191
			c0.317-0.107,0.585-0.32,0.755-0.61c0.259-0.451,0.399-0.981,0.365-1.503c-0.03-0.455-0.199-0.892-0.435-1.279
			c-0.541-0.872-1.358-1.535-2.191-2.114c-1.712-1.161-3.638-2.018-5.553-2.786c9.251-1.02,17.307-3.773,23.535-11.012
			c6.137-7.18,9.473-16.628,9.519-26.051c0.03-6.073-1.431-12.079-3.451-17.775c0.276-0.171,0.611-0.2,0.928-0.215
			c0.513-0.03,1.164,0.036,1.579-0.321c0.117-0.103,0.201-0.239,0.265-0.38c0.126-0.284,0.188-0.596,0.243-0.9
			c0.102-0.559,0.157-1.314,0.403-1.827c0.115-0.236,0.298-0.432,0.495-0.601c0.248-0.21,0.534-0.433,0.712-0.706
			c0.152-0.226,0.246-0.488,0.297-0.755c0.091-0.478,0.086-0.975,0.066-1.46c-0.129-2.16-0.575-4.429-0.938-6.563
			c-0.956-5.441-2.797-10.725-5.235-15.675c-3.774-7.613-8.872-14.642-13.97-21.415c6.798-6.235,14.648-13.451,20.886-20.166
			c2.612-2.827,5.225-5.795,7.385-8.986c0.974-1.444,1.853-2.988,2.578-4.572c0.579-1.274,1.074-2.607,1.331-3.986
			c0.118-0.638,0.181-1.294,0.171-1.943c0.004-0.659-0.134-1.552-0.205-2.211c-0.058-0.564-0.106-1.152,0.059-1.703
			c0.201-0.679,0.686-1.228,1.142-1.753c0.865-0.966,1.907-2.023,2.579-3.128c0.425-0.687,0.755-1.437,0.964-2.218
			c0.407-1.503,0.366-3.093,0.152-4.624c-0.237-1.596-0.636-3.196-1.356-4.646C945.544,155.557,945.703,155.42,945.841,155.268z"/>
	</g>
	<g id="POLYLINE_2411_">
		
			<path fill="none" stroke="#C346FF" stroke-width="3.25" stroke-linecap="round" stroke-linejoin="round" stroke-miterlimit="10" d="
			M550.123,122.432c10.511-1.299,20.945-3.873,30.848-7.631c9.246-3.527,18.214-8.194,25.709-14.722
			c2.122-1.858,4.16-3.894,5.927-6.094c1.008-1.272,1.985-2.616,2.665-4.095c0.568-1.238,0.926-2.702,0.339-3.999
			c-0.258-0.594-0.67-1.12-1.189-1.507c-0.872-0.65-1.944-0.963-2.995-1.185c-2.387-0.47-4.882-0.529-7.31-0.518
			c-5.931,0.078-12.306,0.793-18.207,1.474c-7.39,0.862-14.885,2.153-22.028,4.256c-11.744,3.407-22.866,8.905-32.939,15.812
			c-2.144-1.666-4.457-3.163-6.917-4.319c-4.165-1.966-8.705-3.109-13.226-3.909c-7.715-1.304-15.701-1.607-23.437-0.308
			c-4.302,0.733-8.528,2.093-12.476,3.949c-4.546,2.134-8.799,4.944-12.706,8.09c-1.537-1.892-3.414-3.523-5.313-5.041
			c-2.949-2.327-6.162-4.45-9.373-6.396c-8.136-4.885-16.867-9.084-25.887-12.056c-8.292-2.711-16.965-4.516-25.628-5.511
			c-2.73-0.289-5.579-0.521-8.324-0.455c-1.482,0.05-3.001,0.163-4.416,0.634c-0.681,0.231-1.34,0.567-1.864,1.066
			c-0.459,0.432-0.795,0.982-1.024,1.566c-0.268,0.672-0.361,1.411-0.27,2.129c0.152,1.21,0.723,2.325,1.377,3.338
			c0.859,1.315,1.926,2.515,3.015,3.643c2.791,2.863,6.102,5.65,9.167,8.231c3.01,2.43,9.831,8.125,12.863,10.36
			c1.889,1.395,3.916,2.74,5.955,3.905c4.577,2.629,9.56,4.642,14.568,6.287c6.507,2.124,13.343,3.73,20.055,5.06
			c-2.675,4.849-4.325,10.224-5.338,15.652c-1.284,6.945-1.613,14.123-1.524,21.175c-19.898-8.482-41.61-12.505-63.205-12.576
			c-0.096,19.745,2.726,39.658,7.753,58.737c18.986-1.308,38.231,0.412,56.743,4.79c-3.507,14.096-6.985,29.104-9.295,43.431
			c-1.287,8.183-2.321,16.579-2.315,24.871c0.006,5.167,0.503,10.393,1.654,15.434c0.936,4.093,2.32,8.152,4.574,11.717
			c1.342,2.127,3.019,4.065,4.954,5.673c2.045,1.706,4.383,3.068,6.812,4.149c-1.021,1.707-1.987,3.516-2.394,5.479
			c-0.158,0.798-0.203,1.632-0.023,2.429c0.176,0.777,0.568,1.51,1.133,2.073c0.566,0.566,1.297,0.937,2.049,1.193
			c1.208,0.406,2.497,0.576,3.76,0.706c1.907,0.187,4.043,0.248,5.965,0.291c4.336,0.028,25.52,0.132,30.011-0.044
			c0.986-0.078,2.018-0.156,2.924-0.586c0.514-0.249,0.926-0.667,1.09-1.229c0.129-0.425,0.132-0.878,0.087-1.316
			c-0.084-0.786-0.317-1.56-0.568-2.308c10.901,0.421,22.059,0.316,32.914-0.835c-0.463,0.828-0.893,1.701-1.09,2.634
			c-0.099,0.49-0.127,1.01,0.025,1.491c0.182,0.599,0.654,1.04,1.199,1.32c0.876,0.445,1.86,0.642,2.83,0.752
			c2.241,0.321,36.244,0.127,39.18,0.141c0.885-0.049,1.849-0.113,2.578-0.672c0.672-0.535,1.01-1.386,1.153-2.212
			c0.144-0.906,0.081-1.931-0.511-2.674c-0.286-0.359-0.665-0.634-1.06-0.862c-1.537-0.86-3.883-1.417-5.567-1.969
			c-4.294-1.36-8.476-3.295-12.445-5.418c4.139-2.523,7.815-5.848,10.73-9.721c2.56-3.395,4.495-7.297,5.4-11.464
			c0.818-3.653,0.937-7.454,0.625-11.175c-0.264-3.131-0.81-6.268-1.695-9.285c-0.657-2.24-1.516-4.453-2.57-6.537
			c-1.104-2.197-2.531-4.387-3.88-6.445c2.518-3.973,4.598-8.299,5.637-12.905c0.628-2.727,0.86-5.557,0.886-8.351
			c0.037-3.099-0.221-6.24-1.011-9.244c-0.888-3.454-2.488-6.703-4.293-9.764c-2.644-4.503-5.939-8.843-9.217-12.91
			c-0.41-0.539-0.842-1.092-1.135-1.704c-0.145-0.309-0.245-0.648-0.226-0.992c0.014-0.27,0.098-0.533,0.213-0.777
			c0.109-0.231,0.247-0.455,0.389-0.668c0.409-0.628,2.281-2.986,2.762-3.622c4.301-5.713,8.023-12.159,9.19-19.301
			c0.364-2.245,0.492-4.557,0.22-6.82c-0.129-1.078-0.362-2.156-0.701-3.187c-0.525-1.697-1.734-4.098-2.465-5.735
			c-0.748-1.674-1.399-3.424-1.791-5.217c-0.876-3.966-0.867-9.295-1.066-13.378c-0.192-4.606-0.583-9.336-1.87-13.777
			C554.193,129.175,552.456,125.584,550.123,122.432z"/>
	</g>
	<g id="POLYLINE_2412_">
		
			<path fill="none" stroke="#C346FF" stroke-width="3.25" stroke-linecap="round" stroke-linejoin="round" stroke-miterlimit="10" d="
			M218.11,254.462l22.944,1.896c-1.699-9.427-4.176-19.052-7.136-28.16c13.447,2.245,27.631,3.927,41.237,4.706
			c-3.461-16.126-8.02-32.774-13.154-48.45c15.508,1.927,34.051,3.681,49.646,4.706c11.703-19.103,21.125-39.885,27.649-61.32
			c-38.922,4.287-78.196,11.331-116.048,21.417c5.072,19.855,11.629,39.634,19.723,58.467c-9.629,0.209-19.339,1.365-28.751,3.41
			c2.101,10.404,4.804,21.175,8.055,31.279h-6.704c-0.965-4.908-1.868-10.248-2.527-15.202c-0.279-2.204-0.606-4.755-0.705-6.967
			c-0.005-0.386,0.057-1.439,0.073-1.84c0.33-7.159-1.689-14.482-2.962-21.476c-0.438-2.479-0.471-5.161-0.561-7.675
			c-0.022-0.985,0.012-2.013,0.432-2.922c3.024-4.684,4.826-10.104,5.502-15.624c0.535-4.36,0.334-8.818-0.073-13.182
			c-0.471-4.974-1.305-10.486-2.108-15.428c-0.622-3.7-1.353-7.572-2.342-11.19c-0.547-1.999-1.241-4.221-1.918-6.178
			c-0.227-0.671-1.444-3.988-1.598-4.637c-0.057-0.248-0.117-0.516-0.031-0.763c0.088-0.238,0.347-0.348,0.577-0.408
			c0.232-0.063,0.478-0.092,0.716-0.118c0.523-0.061,3.125-0.204,3.697-0.249c14.832-1.114,29.602-4.507,43.332-10.25
			c4.878-2.073,9.702-4.503,14.127-7.429c3.033-1.998,5.979-4.294,8.729-6.667c1.452-1.265,3.029-2.645,4.363-4.033
			c0.566-0.605,1.157-1.232,1.578-1.95c0.144-0.254,0.268-0.529,0.295-0.823c0.016-0.186-0.004-0.38-0.087-0.55
			c-0.071-0.144-0.187-0.261-0.317-0.354c-0.225-0.16-0.486-0.266-0.745-0.357c-0.527-0.181-1.087-0.306-1.634-0.411
			c-2.149-0.392-4.407-0.493-6.588-0.568c-4.814-0.138-10.389,0.044-15.217,0.265c-10.296,0.494-20.675,1.718-30.649,4.382
			c-6.326,1.644-12.991,3.906-19.158,6.106c-5.228,1.933-14.44,5.236-19.496,7.429c-0.273,0.098-0.561,0.208-0.855,0.159
			c-0.19-0.031-0.364-0.119-0.53-0.211c-0.078-0.044-0.171-0.1-0.247-0.147c0,0-0.66-0.418-0.66-0.418
			c-0.884-0.546-1.857-0.996-2.814-1.4c-2.089-0.869-4.353-1.617-6.519-2.276c-5.947-1.773-12.126-3.034-18.33-3.373
			c-5.716-0.291-11.488,0.182-17.12,1.168c-5.468,0.967-10.906,2.475-15.897,4.942l-2.574,1.302
			c-0.329,0.153-0.655,0.314-1.002,0.417c-0.143,0.042-0.293,0.075-0.443,0.069c-0.088-0.004-0.175-0.024-0.254-0.062
			c-0.108-0.051-0.201-0.132-0.287-0.215c-8.602-8.92-17.319-19.101-27.51-26.206c-8.67-6.09-18.499-10.564-28.307-14.486
			c-4.982-1.953-10.18-3.754-15.365-5.085C48.7,56.8,45.73,56.135,42.792,55.81c-0.439-0.037-0.917-0.084-1.36-0.062
			c-0.23,0.012-0.469,0.031-0.689,0.105c-0.121,0.04-0.238,0.1-0.327,0.192c-0.103,0.107-0.152,0.251-0.162,0.397
			c-0.016,0.225,0.034,0.449,0.103,0.661c0.296,0.839,0.804,1.636,1.261,2.398c3.637,5.699,7.652,11.466,11.934,16.696
			c2.092,2.542,4.443,5.052,6.836,7.311c2.963,2.841,7.962,6.937,11.157,9.625c4.378,3.655,9.1,7.501,13.792,10.727
			c5.657,3.954,13.19,8.138,19.249,11.549c0.996,0.589,2.078,1.169,2.938,1.952c0.228,0.218,0.439,0.466,0.553,0.764
			c0.081,0.209,0.098,0.439,0.067,0.66c-0.023,0.184-0.077,0.364-0.132,0.54c-0.372,1.051-0.941,2.367-1.302,3.421
			c-1.003,2.836-1.768,5.903-2.446,8.833c-1.179,5.175-2.288,11.02-3.105,16.266c-1.426,9.305-2.213,19.016,0.187,28.226
			c1.026,3.773,2.555,7.467,4.835,10.66c0.124,1.691,0.264,3.575,0.209,5.262c-0.033,1.199-0.18,2.432-0.365,3.617l-2.083,12.183
			c-0.801,5.064-1.349,10.256-0.978,15.382c-1.085,9.606-2.681,19.927-4.544,29.402c-1.637,8.523-4.967,23.196-5.781,31.646
			c-0.383,3.826-0.466,7.735,0.12,11.544c0.751,5.009,2.731,9.776,5.251,14.144c1.872,3.193,4.042,6.289,6.767,8.814
			c1.112,1.015,2.353,1.913,3.705,2.58c1.242,0.619,2.587,1.042,3.949,1.301c-0.766,0.695-2.853,2.402-3.523,3.134
			c-0.214,0.231-0.413,0.481-0.569,0.755c-0.348,0.615-0.52,1.363-0.352,2.06c0.078,0.315,0.247,0.617,0.518,0.803
			c0.214,0.151,0.469,0.232,0.724,0.284c0.439,0.087,0.9,0.098,1.347,0.107l18.377,0.004c0,0,0.769-0.003,0.769-0.003
			c0.166-0.004,0.375-0.007,0.539-0.018c0.335-0.021,0.677-0.057,0.993-0.174c0.244-0.089,0.465-0.236,0.645-0.423
			c0.558-0.594,0.816-1.422,0.88-2.222c0.051-0.652-0.083-1.306-0.243-1.936l-0.942-3.418c4.45-1.117,9.086-3.676,13.347-5.344
			c1.716-0.651,3.509-1.163,5.309-1.524c2.39-0.482,4.876-0.718,7.31-0.825c2.289-0.094,4.634-0.06,6.909,0.219
			c2.792,0.314,5.509,1.164,8.1,2.227c4.515,1.922,9.456,3.948,14.163,5.282c-0.365,1.46-0.746,2.976-0.881,4.476
			c-0.084,0.981-0.02,2.129,0.766,2.827c0.335,0.296,0.761,0.465,1.19,0.573c1.007,0.243,2.09,0.245,3.122,0.271l16.838,0.011
			c0.268-0.003,0.603,0.001,0.868-0.017c0.312-0.02,0.63-0.06,0.922-0.176c0.239-0.094,0.455-0.25,0.606-0.458
			c0.284-0.395,0.391-0.89,0.432-1.367c0.036-0.538,0-1.095-0.186-1.606c-0.116-0.305-0.293-0.585-0.482-0.849
			c-1.008-1.345-2.37-2.647-3.54-3.859c1.202-0.406,2.372-0.943,3.425-1.654c1.238-0.831,2.333-1.875,3.329-2.98
			c3.678-4.117,6.072-9.23,7.757-14.447c0.969-3.033,1.7-6.203,2.057-9.37c0.388-3.381,0.352-6.854,0.086-10.243
			C222.278,273.386,220.066,263.635,218.11,254.462z"/>
	</g>
</g>
<g id="Layer_1">
</g>
</svg>
